# xmcd
#
# Track frame offsets: 
#        150
#        35030
#        66682
#        98632
#        131062
#        156352
#        178045
#        209015
#        222345
#        240810
#        268645
#
# Disc length: 3759 seconds
#
# Revision: 2
# Processed by: cddbd v1.5.2PL0 Copyright (c) Steve Scherf et al.
# Submitted via: ExactAudioCopy v1.0b3
#
DISCID=a90ead0b
DTITLE=Jean-Pierre Gebler Quartet - Ballades... Ou Presque
DYEAR=1994
DGENRE=Jazz
TTITLE0=Come Rain or Come Shine
TTITLE1=Lament
TTITLE2=What's News
TTITLE3=The Night Has a Thousand Eyes
TTITLE4=Five Women
TTITLE5=I'm Getting Sentimental Over You
TTITLE6='Tis Autumn
TTITLE7=S.K.J. Blues
TTITLE8=All the Things You Are
TTITLE9=Everything Happens to Me
TTITLE10=A Weaver of Dreams
EXTD=
EXTT0=
EXTT1=
EXTT2=
EXTT3=
EXTT4=
EXTT5=
EXTT6=
EXTT7=
EXTT8=
EXTT9=
EXTT10=
PLAYORDER=
